<?xml version="1.0" encoding="utf-8"?>
<!-- Generator: Adobe Illustrator 19.1.0, SVG Export Plug-In . SVG Version: 6.00 Build 0)  -->
<svg version="1.1" id="Capa_1" xmlns="http://www.w3.org/2000/svg" xmlns:xlink="http://www.w3.org/1999/xlink" x="0px" y="0px"
	 viewBox="-1162 1162.4 510.2 510.2" style="enable-background:new -1162 1162.4 510.2 510.2;" xml:space="preserve">
<style type="text/css">
	.st0{fill:#FFFFFF;}
</style>
<g>
	<path class="st0" d="M-796.7,1267.1h-63.8v-80.3h33.8v-14.9h-160.3v14.9h33.8v80.3h-63.8c-23.1,0-41.9,18.8-41.9,41.9v276.8
		c0,23.1,18.8,41.9,41.9,41.9h12.3c-0.4,2-0.7,4.1-0.7,6.2c0,16.1,13.1,29.2,29.2,29.2c16.1,0,29.2-13.1,29.2-29.2
		c0-2.1-0.2-4.2-0.7-6.2h81.5c-0.4,2-0.7,4.1-0.7,6.2c0,16.1,13.1,29.2,29.2,29.2s29.2-13.1,29.2-29.2c0-2.1-0.2-4.2-0.7-6.2h12.3
		c23.1,0,41.9-18.8,41.9-41.9V1309C-754.8,1285.9-773.6,1267.1-796.7,1267.1z M-938.3,1186.8h62.9v80.3h-62.9V1186.8z
		 M-976.2,1648.3c-7.9,0-14.3-6.4-14.3-14.3c0-2.2,0.5-4.3,1.4-6.2h25.7c0.9,1.9,1.4,4,1.4,6.2
		C-961.9,1641.8-968.3,1648.3-976.2,1648.3z M-837.6,1648.3c-7.9,0-14.3-6.4-14.3-14.3c0-2.2,0.5-4.3,1.4-6.2h25.7
		c0.9,1.9,1.4,4,1.4,6.2C-823.3,1641.8-829.7,1648.3-837.6,1648.3z M-778.3,1585.8c0,10.2-8.3,18.5-18.5,18.5h-220.3
		c-10.2,0-18.5-8.3-18.5-18.5V1309c0-10.2,8.3-18.5,18.5-18.5h220.3c10.2,0,18.5,8.3,18.5,18.5V1585.8z"/>
	<path class="st0" d="M-817.8,1475.1h-67.3c-12.4,0-22.6,10.1-22.6,22.6v35.1c0,12.4,10.1,22.6,22.6,22.6h67.3
		c12.4,0,22.6-10.1,22.6-22.6v-35.1C-795.2,1485.2-805.3,1475.1-817.8,1475.1z M-810.1,1532.8c0,4.2-3.4,7.6-7.6,7.6h-67.3
		c-4.2,0-7.6-3.4-7.6-7.6v-35.1c0-4.2,3.4-7.6,7.6-7.6h67.3c4.2,0,7.6,3.4,7.6,7.6V1532.8z"/>
</g>
</svg>
