<?xml version="1.0" encoding="utf-8"?>
<!-- Generator: Adobe Illustrator 20.0.0, SVG Export Plug-In . SVG Version: 6.00 Build 0)  -->
<svg version="1.1" id="Camada_1" xmlns="http://www.w3.org/2000/svg" xmlns:xlink="http://www.w3.org/1999/xlink" x="0px" y="0px"
	 viewBox="0 0 139.6 34.4" style="enable-background:new 0 0 139.6 34.4;" xml:space="preserve">
<style type="text/css">
	.st0{fill:#C3161C;}
	.st1{fill:#005495;}
</style>
<g>
	<path class="st0" d="M127,2.8l3.8,3.6c-0.9,1.1-1.8,2.3-2.4,3.2c-0.3,0.3-0.4,0.7-0.6,0.9l-1.3-0.6c0,0-0.1,0-0.1,0
		c0,0,0,0-0.1,0.1l-0.6,0.7c0,0-0.1,0.1,0,0.1c0,0,0,0.1,0,0.1l1.7,1.2c-0.1,0.2,0,0.4,0.1,0.5c0.1,0.1,0.2,0.1,0.5,0l1.4,1.7
		c0,0,0.1,0.1,0.1,0c0,0,0.1,0,0.1,0l0.6-0.7c0,0,0,0,0.1-0.1c0,0,0-0.1,0-0.1l-0.9-1.7c0.2-0.2,0.5-0.4,0.7-0.6
		c0.9-0.7,2-1.7,3-2.7l5,4.7c0.1,0.1,0.1,0.1,0.2,0.1c0.1,0,0.1,0,0.2-0.1l1.3-1.4c0,0,0.1-0.1,0.1-0.1c0-0.1,0-0.1-0.1-0.2
		l-4.1-5.7c0.4-0.5,0.8-0.9,1.2-1.4c0.4-0.6,0.7-1.1,0.9-1.6c0.3-0.8,0.3-1.3,0-1.6c-0.3-0.3-0.8-0.3-1.6,0.1c-0.5,0.2-1,0.6-1.5,1
		c-0.4,0.5-0.9,0.9-1.3,1.4l-5.7-3.6C127.4,0,127.4,0,127.3,0c-0.1,0-0.1,0-0.1,0l-1.3,1.4c-0.1,0.1-0.1,0.1-0.1,0.2
		c0,0.1,0.1,0.2,0.2,0.3L127,2.8"/>
</g>
<g>
	<path class="st0" d="M3.6,11.5h4.7L7,19.2h5.5l1.4-7.6h4.7l-3.6,20h-4.7l1.6-8.6H6.2l-1.6,8.6H0L3.6,11.5z"/>
</g>
<g>
	<path class="st0" d="M24.3,31.8c-4.8,0-6.8-3.1-6.8-6.8c0-5.2,3.3-8.8,8.4-8.8c4.4,0,6.8,2.9,6.8,6.7
		C32.8,29.1,29.2,31.8,24.3,31.8z M25.7,19.9c-2.2,0-3.5,2.7-3.5,5.1c0,2,0.9,3.3,2.5,3.3c2.1,0,3.4-2,3.4-5.4
		C28.1,21.3,27.5,19.9,25.7,19.9z"/>
</g>
<g>
	<path class="st0" d="M34.3,16.6h2.6l0.6-3.2l4.8-1.5l-0.9,4.7h3.1l-0.6,3.6h-3.3l-0.8,4.1c-0.2,1.1-0.4,1.9-0.4,2.6
		c0,1,0.6,1.7,1.5,1.7c0.5,0,1-0.2,1.5-0.4l-0.5,3.4c-1,0.2-1.9,0.3-2.8,0.3c-2.3,0-4.1-1.3-4.1-4.4c0-0.7,0.1-1.5,0.4-3.1l0.8-4.2
		h-2.4L34.3,16.6z"/>
</g>
<g>
	<path class="st1" d="M47.8,11.5h7.3l0.3,13.4h0.1L61,11.5h7.5l-3.7,20h-4.6l3.2-16.4h-0.1l-6.9,16.4H52l-0.7-16.4h0l-3,16.4H44
		L47.8,11.5z"/>
</g>
<g>
	<path class="st1" d="M69.9,16.6h4.6l-2.7,14.9h-4.6L69.9,16.6z M71,10.4h4.6l-0.7,3.8h-4.6L71,10.4z"/>
</g>
<g>
	<path class="st1" d="M78.4,10H83l-3.9,21.5h-4.6L78.4,10z"/>
</g>
<g>
	<path class="st1" d="M85.9,10h4.6l-1.6,8.7h0c0.9-1.4,2.4-2.5,4.5-2.5c2.6,0,4.1,2.2,4.1,5.1c0,1-0.1,1.6-0.3,3.1l-1.2,7h-4.7
		l1.3-7c0.1-0.7,0.3-1.5,0.3-2.3c0-0.9-0.5-1.8-1.8-1.7c-1.9,0-3,1.9-3.4,4.1l-1.3,6.9h-4.5L85.9,10z"/>
</g>
<g>
	<path class="st1" d="M107.1,29.4L107.1,29.4L107.1,29.4c-1,1.7-2.7,2.4-4.4,2.4c-2.8,0-4.4-1.4-4.4-4.3c0-3.7,3.2-5.5,7.2-5.5
		c0.9,0,1.8,0.1,2.4,0.1c0-0.2,0-0.4,0-0.6c0-1.1-0.9-1.9-2.4-1.9c-1.6,0-2.7,0.3-4.2,1.2l0.5-3.7c1.3-0.5,2.8-0.9,4.8-0.9
		c3.1,0,5.7,1.4,5.7,5.1c0,2.3-1.2,5.7-1.7,10.2h-3.7L107.1,29.4z M104.1,28.4c1.9,0,3.1-1.5,3.4-3.5c-0.4-0.1-0.9-0.1-1.2-0.1
		c-2.2-0.1-3.7,0.8-3.7,2.1C102.6,27.6,103.2,28.4,104.1,28.4z"/>
</g>
<path class="st1" d="M127.7,14.4l-2.1-2c-1.2,1.3-2.3,2.6-3.3,4c-0.4,0-0.7-0.1-1-0.1c-3.3,0-7.2,1.4-7.2,4.9c0,2.4,1.6,3.3,3.2,3.9
	c-0.5,1.1-0.9,2.2-1.3,3.1c-1-0.1-2-0.3-2.7-0.7l-1,3.5c0.7,0.2,1.6,0.4,2.6,0.5c-0.4,1.3-0.6,2.1-0.6,2.2l2.9,0.6
	c0,0,0.2-1,0.7-2.6c0.1,0,0.3,0,0.4,0c3.7-0.1,6.7-1.9,6.7-5.6c0-1.9-1.6-2.8-3.2-3.5c0.5-0.9,1.1-1.9,1.7-2.8
	c0.9,0.2,1.9,0.6,2.5,0.8l1-3.4c-0.4-0.1-0.9-0.3-1.4-0.4C126.2,16.1,126.9,15.2,127.7,14.4z M120.6,27c0,0.8-0.8,1.1-1.6,1.2
	c0.3-0.7,0.6-1.4,0.9-2.2C120.4,26.3,120.6,26.6,120.6,27z M118.4,20.8c0-0.8,0.8-1.2,1.7-1.3c-0.4,0.7-0.8,1.3-1.2,2
	C118.6,21.3,118.4,21.1,118.4,20.8z"/>
</svg>
