<?xml version="1.0" encoding="utf-8"?>
<!-- Generator: Adobe Illustrator 19.1.0, SVG Export Plug-In . SVG Version: 6.00 Build 0)  -->
<svg version="1.1" id="Capa_1" xmlns="http://www.w3.org/2000/svg" xmlns:xlink="http://www.w3.org/1999/xlink" x="0px" y="0px"
	 viewBox="-1162 1162.4 510.2 510.2" style="enable-background:new -1162 1162.4 510.2 510.2;" xml:space="preserve">
<style type="text/css">
	.st0{fill:#FFFFFF;}
</style>
<g>
	<path class="st0" d="M-672.2,1329.5c-2.3-4.9-9.5-7.5-16.1-5.7l-138.6,39.5l-28.9-7.3c2-3.7,3.9-7.5,5.9-11.2l8.9-18.3
		c10.3-22.4,17.8-43.6,17.8-58c0-48.9-39.8-88.7-88.7-88.7c-48.9,0-88.7,39.8-88.7,88.7c0,13.9,6.9,34,16.6,55.4h-1.1h-3h-1.6h-1.2
		l-142.9,40.5c-5,1.3-8.4,4.8-8.4,8.8v273c0,1,0.3,2.1,0.7,3c2.3,4.9,9.5,7.5,16.1,5.7l138.8-39.5l155.4,39.5c2.7,0.8,5.7,0.8,8.4,0
		l142.9-40.5c5-1.3,8.4-4.8,8.4-8.8v-273C-671.5,1331.5-671.8,1330.5-672.2,1329.5z M-999.4,1599.1l-117.7,33.4v-252.9l117.7-33.4
		V1599.1z M-912,1200c37.7,0,68.3,30.7,68.3,68.3c0,13-8.6,35-20.4,58.9c0,0,0,0-0.1,0.1c0,0,0,0,0,0.1c-3.8,7.7-7.9,15.6-12.2,23.4
		c-3.2,5.8-6.4,11.6-9.7,17.3c-9.2,16.2-18.5,31.3-26,43.2c-9.9-15.6-22.8-36.8-34.7-58.6c-4.2-7.6-8.2-15.3-11.9-22.8
		c-0.4-0.8-0.8-1.6-1.2-2.5c0,0,0-0.1,0-0.1c0,0-0.1-0.1-0.1-0.1c-11.7-23.8-20.4-45.8-20.4-58.8C-980.3,1230.7-949.7,1200-912,1200
		z M-839.6,1633l-134.5-34.1v-253.2l0.7,0.2c19.6,38.3,43.7,75.8,51.2,87.2l10.2,14.5l10.2-14.5c5.7-8.7,20.9-32.2,36.4-59.8
		l25.7,6.5V1633z M-696.7,1599.1l-117.7,33.4v-252.9l117.7-33.4V1599.1z"/>
	<path class="st0" d="M-906.9,1307.7c24.6,0,44.7-20,44.7-44.7s-20-44.7-44.7-44.7s-44.7,20-44.7,44.7S-931.5,1307.7-906.9,1307.7z
		 M-906.9,1238.7c13.4,0,24.3,10.9,24.3,24.3c0,13.4-10.9,24.3-24.3,24.3c-13.4,0-24.3-10.9-24.3-24.3
		C-931.2,1249.6-920.3,1238.7-906.9,1238.7z"/>
</g>
</svg>
