<?xml version="1.0" encoding="utf-8"?>
<!-- Generator: Adobe Illustrator 19.1.0, SVG Export Plug-In . SVG Version: 6.00 Build 0)  -->
<svg version="1.1" id="Capa_1" xmlns="http://www.w3.org/2000/svg" xmlns:xlink="http://www.w3.org/1999/xlink" x="0px" y="0px"
	 viewBox="-1416.1 1418.5 510.2 510.2" style="enable-background:new -1416.1 1418.5 510.2 510.2;" xml:space="preserve">
<style type="text/css">
	.st0{fill:#FFFFFF;}
</style>
<g>
	<polygon class="st0" points="-1014.5,1436.2 -1014.5,1454.7 -928.6,1454.7 -928.6,1532.1 -910.1,1532.1 -910.1,1436.2 	"/>
	<polygon class="st0" points="-1393.4,1454.7 -1307.5,1454.7 -1307.5,1436.2 -1411.9,1436.2 -1411.9,1532.1 -1393.4,1532.1 	"/>
	<polygon class="st0" points="-928.6,1892.6 -1014.5,1892.6 -1014.5,1911.1 -910.1,1911.1 -910.1,1815.2 -928.6,1815.2 	"/>
	<polygon class="st0" points="-1393.4,1815.2 -1411.9,1815.2 -1411.9,1911.1 -1307.5,1911.1 -1307.5,1892.6 -1393.4,1892.6 	"/>
	<path class="st0" d="M-947.7,1691.6h18.1v-36h-18.1c-4.2-50.4-25.8-97.2-61.9-133.4c-36.2-36.2-83-57.8-133.4-61.9v-18.1h-36v18.1
		c-50.4,4.2-97.2,25.8-133.4,61.9c-36.2,36.2-57.8,83-61.9,133.4h-18.1v36h18.1c4.2,50.4,25.8,97.2,61.9,133.4
		c36.2,36.2,83,57.8,133.4,61.9v18.1h36v-18.1c50.4-4.2,97.2-25.8,133.4-61.9C-973.5,1788.9-951.9,1742-947.7,1691.6z M-1179,1850.8
		c-83.8-8.5-150.7-75.3-159.1-159.2h159.1V1850.8z M-1179,1655.6h-159.1c8.5-83.8,75.3-150.7,159.1-159.1V1655.6z M-1143,1496.5
		c83.8,8.5,150.7,75.3,159.1,159.1H-1143V1496.5z M-1143,1850.8v-159.2h159.1C-992.3,1775.5-1059.2,1842.3-1143,1850.8z"/>
</g>
</svg>
