<?xml version="1.0" encoding="utf-8"?>
<!-- Generator: Adobe Illustrator 19.1.0, SVG Export Plug-In . SVG Version: 6.00 Build 0)  -->
<svg version="1.1" id="Capa_1" xmlns="http://www.w3.org/2000/svg" xmlns:xlink="http://www.w3.org/1999/xlink" x="0px" y="0px"
	 viewBox="-1162 1162.4 510.2 510.2" style="enable-background:new -1162 1162.4 510.2 510.2;" xml:space="preserve">
<style type="text/css">
	.st0{fill:#FFFFFF;}
</style>
<path class="st0" d="M-762.1,1660.8c-1.4,0-2.9-0.1-4.3-0.3c-9.8-1.4-18.5-7.6-23.3-16.5l-92.7-167.9
	c-19.7,18.6-40.3,36.3-61.5,52.5l-9,6.9l21.9,39.6l0.3,0.9c8.6,23,2.1,47-16.2,59.6l-4.1,2.8c-8.9,6.1-21.2,3.8-28.2-5.4l-38.2-48.5
	c-19.5,12-41.9,11.6-55.1-1.6c-0.6-0.6-1.2-1.3-1.8-2c-0.1-0.1-0.3-0.3-0.4-0.5c-0.4-0.5-0.9-1.1-1.3-1.7c-0.1-0.1-0.2-0.2-0.3-0.4
	c-0.5-0.8-1-1.5-1.5-2.3c-0.1-0.1-0.1-0.3-0.2-0.4c-0.4-0.7-0.8-1.4-1.1-2.1l-0.1-0.3c-0.8-1.6-1.4-3.4-1.9-5.2l-0.1-0.2
	c-3.5-12.3-0.8-26.9,7.2-39.9l-48.5-38.2c-9.1-7-11.5-19.3-5.4-28.2c14.3-20.7,41.5-28,67.8-18.3l0.9,0.4l34.4,19.5l6.7-8.7
	c16.2-21.2,33.9-41.8,52.5-61.5l-167.9-92.7c-8.9-4.8-15.1-13.5-16.5-23.3c-1.3-8.8,1.4-17.3,7.4-23.3l22.1-22.1
	c6.8-6.8,16.6-9.3,26.4-6.8l0.7,0.2l224.8,70.6l60.2-60.2c20.7-20.7,44.6-37.8,68.9-49.2c20.6-9.7,36.7-13.4,49.4-11.2h0.3
	c2,0.4,3.9,0.9,5.7,1.5l0.4,0.2c0.8,0.3,1.6,0.6,2.4,1c0.2,0.1,0.3,0.1,0.4,0.2c0.9,0.4,1.8,0.9,2.7,1.5c0.2,0.1,0.4,0.2,0.5,0.3
	c0.7,0.4,1.4,0.9,2,1.4c0.2,0.2,0.4,0.3,0.6,0.5c0.9,0.7,1.6,1.4,2.3,2c5.7,5.7,8.8,13.3,9.2,22.6c0.5,11.8-3.4,26.2-11.8,44
	c-5.2,11.1-11.6,22-18.9,32.7c-6.8,9.8-14.5,19.4-22.8,28.4l0,0c-2.4,2.6-4.9,5.2-7.5,7.8l-60.2,60.2l70.7,225.1l0.1,0.3
	c2.5,9.8-0.1,19.6-6.8,26.4l-22.1,22.1C-748.1,1658.1-754.9,1660.8-762.1,1660.8z M-876.3,1434.9l108.8,197.1
	c1.2,2.3,3.3,3.4,4.8,3.6c0.4,0.1,1.3,0.1,1.8-0.3l22.1-22.1c0.3-0.3,0.5-1,0.3-2.1l-75.1-239l71.1-71.1c2.3-2.3,4.6-4.7,6.8-7.1
	l0,0c7.5-8.1,14.5-16.8,20.6-25.7c6.6-9.5,12.3-19.3,16.9-29.1c8.1-17.3,9.6-27.1,9.4-32.2c-0.1-2.8-0.7-4.7-1.8-5.8
	c0,0-0.1-0.1-0.3-0.3l-0.1-0.1c-0.1-0.1-0.2-0.2-0.3-0.2s-0.1-0.1-0.2-0.1c-0.1,0-0.2-0.1-0.2-0.1l-0.1-0.1
	c-0.2-0.1-0.3-0.2-0.5-0.2l-0.1-0.1c-0.4-0.2-1-0.3-1.6-0.4c-4.2-0.7-14.1-0.4-34.5,9.1c-21.7,10.2-43.1,25.5-61.8,44.3l-71.1,71.1
	l-239-75.1c-1-0.2-1.8,0-2.1,0.3l-22.1,22.1c-0.4,0.4-0.4,1.4-0.3,1.8c0.2,1.5,1.3,3.6,3.6,4.8l0.1,0.1l196.9,108.7l-11.7,11.9
	c-22.2,22.5-43.1,46.4-62,71.1l-20,26.1l-51.7-29.3c-13.3-4.7-26.1-2.5-34.2,5.6l65,51.1l-10.9,14.2c-6,7.9-8.7,17.1-6.9,23.5v0.1
	c0.2,0.5,0.3,1,0.6,1.5l0.1,0.1c0.1,0.2,0.2,0.4,0.3,0.6l0.1,0.2c0.1,0.2,0.2,0.3,0.3,0.5l0.1,0.1c0.2,0.2,0.3,0.4,0.4,0.5l0.1,0.1
	c0.2,0.2,0.4,0.4,0.5,0.5c4.6,4.6,16.3,4.2,27.7-4.5l14.2-10.9l51.4,65.3l0.1-0.1c8.5-5.9,11.3-17.3,7.1-29.2l-31.4-56.9l26.2-20.1
	c24.7-18.9,48.6-39.8,71.1-62L-876.3,1434.9z"/>
</svg>
