<?xml version="1.0" encoding="utf-8"?>
<!-- Generator: Adobe Illustrator 19.1.0, SVG Export Plug-In . SVG Version: 6.00 Build 0)  -->
<svg version="1.1" id="Capa_1" xmlns="http://www.w3.org/2000/svg" xmlns:xlink="http://www.w3.org/1999/xlink" x="0px" y="0px"
	 viewBox="-1162 1162.4 510.2 510.2" style="enable-background:new -1162 1162.4 510.2 510.2;" xml:space="preserve">
<style type="text/css">
	.st0{fill:#FFFFFF;}
</style>
<path class="st0" d="M-666.3,1415c0-0.2-0.1-0.4-0.1-0.7c-0.1-0.7-0.2-1.4-0.4-2c0-0.1-0.1-0.3-0.1-0.5c-0.2-0.9-0.4-1.7-0.7-2.5
	c0-0.1-0.1-0.2-0.1-0.4c-0.2-0.7-0.5-1.4-0.8-2l-0.1-0.4c-0.7-1.4-1.6-2.9-2.5-4.3l-0.2-0.2c-6.3-9-18.3-16.4-36.5-23
	c-21.5-7.8-46.2-11.9-71.2-11.9h-72.5l-92.9-178l-0.3-0.5c-4.4-7.4-11.8-11.8-20-11.8h-26.6c-7.2,0-14,3.5-18.5,9.6
	c-5.1,6.7-6.6,15.7-4.1,24l45.3,157c-23.1,0.7-46.2,2.4-68.7,5.4l-9.3,1.2l-9-32.5l-0.3-0.8c-10-21.7-30.8-33.7-51.9-29.8
	c-9,1.7-15,10.5-13.7,20.2l6.2,52.2c-12.7,3-23.1,10.2-28.4,19.7l-0.1,0.2c-0.8,1.4-1.5,2.8-2,4.3l-0.1,0.2
	c-0.2,0.6-0.4,1.3-0.6,1.9c0,0.1-0.1,0.2-0.1,0.4c-0.2,0.8-0.3,1.5-0.5,2.3c-0.1,0.2-0.1,0.3-0.1,0.4c-0.1,0.6-0.2,1.3-0.2,1.8
	c-0.1,0.2-0.1,0.4-0.1,0.5c-0.1,0.8-0.1,1.6-0.1,2.3c0,15.9,13.3,29.6,32.2,34.2l-6.2,52.2c-1.3,9.8,4.7,18.6,13.7,20.2l4.2,0.8
	c18.6,3.4,37-7.1,45.7-26.2l0.4-0.7l10.7-37.1l9.6,1.3c22.5,3,45.6,4.8,68.7,5.4l-45.3,157c-2.5,8.3-1,17.2,4.1,24
	c0.7,1,1.6,1.9,2.4,2.8c4.3,4.3,10.1,6.8,16.2,6.9h26.6c8.1-0.1,15.6-4.4,20-11.8l0.1-0.2l93-178.2l72.5,0c3.1,0,6.2-0.1,9.2-0.2
	c10.4-0.4,20.8-1.6,30.9-3.4c10.8-2,21.3-4.8,31.1-8.3c15.8-5.7,26.8-12,33.6-19.4c5.4-5.8,8.1-12.3,8.1-19.2
	C-666.2,1416.8-666.2,1416-666.3,1415z M-687.5,1417.1c0,0.2,0,0.4,0,0.4c0,1.3-0.8,2.8-2.4,4.6c-3,3.2-9.8,8.2-25.1,13.7
	c-8.7,3.1-18,5.6-27.7,7.4c-9,1.7-18.5,2.7-27.9,3.1c-2.8,0.1-5.6,0.2-8.4,0.2h-85.7l-98.8,189.3c-0.5,0.8-1.1,1.1-1.4,1.1h-26.6
	c-0.5-0.1-1.1-0.6-1.3-0.9c-0.8-1-1.4-3-0.7-5.1l53.2-184.3l-14,0.2c-26.9-0.2-53.9-2-80.2-5.5l-27.9-3.7l-15.4,53.2
	c-4.6,9.7-13.2,14.9-21.9,13.3h-0.1l8.4-70.3l-15.1-2c-12.1-1.6-19.4-8.4-19.4-14c0-0.1,0-0.4,0-0.6v-0.1c0-0.1,0.1-0.3,0.1-0.5
	v-0.1c0.1-0.2,0.1-0.3,0.1-0.5l0.1-0.2c0.1-0.2,0.1-0.4,0.2-0.5v-0.1c0.1-0.5,0.4-0.8,0.5-1.3l0.1-0.1c2.8-4.9,9.9-8.9,18.3-10
	l15.1-2l-8.4-70c9.8,0,18.8,6.4,24,17.2l13.5,48.8l27.8-3.7c26.3-3.5,53.3-5.3,80.2-5.5l14.2-0.1l-53.1-184.1v-0.1
	c-0.7-2.1-0.1-4,0.7-5.1c0.2-0.3,0.8-0.9,1.3-0.9h26.6c0.4,0,1,0.4,1.4,1.1l98.8,189.3h85.7c22.6-0.1,44.7,3.6,63.9,10.5
	c18,6.6,24.2,12.4,26.3,15.3c0.3,0.4,0.6,0.8,0.7,1.2v0.1c0.1,0.1,0.1,0.2,0.2,0.4v0.1c0,0,0,0.1,0.1,0.2c0.1,0.1,0,0.1,0.1,0.2
	c0.1,0.1,0.1,0.2,0.1,0.3V1417.1z"/>
</svg>
